<svg preserveAspectRatio="xMidYMid meet" data-bbox="13 68 228.821 128.068" xmlns="http://www.w3.org/2000/svg" viewBox="13 68 228.821 128.068" height="256" width="256" data-type="shape" role="presentation" aria-hidden="true" aria-label="">
    <g>
        <path d="M122.727 75.772 115 83.544v36.728c0 20.2-.344 36.728-.763 36.728s-6.945-6.193-14.5-13.763L86 129.474v-28.021l-7.772-7.726c-4.275-4.25-8.1-7.727-8.5-7.727s-.731 9.112-.734 20.25l-.006 20.25-20.672-20.75L27.645 85H13v111h17v-41.5c0-22.825.183-41.5.406-41.5s8.991 8.662 19.484 19.25l19.079 19.25.016 22.25L69 196h17v-42.483l21.259 21.242c11.692 11.682 22.042 21.241 23 21.241 1.637 0 1.741-3.834 1.741-64 0-35.2-.348-64-.773-64s-4.251 3.497-8.5 7.772M148 132v64h17v-26.5c0-14.575.154-26.5.343-26.5s12.227 11.94 26.752 26.534l26.41 26.534 11.658-.284 11.658-.284-38.381-39-38.382-39-.029-24.75L165 68h-17z" clip-rule="evenodd" fill-rule="evenodd"></path>
    </g>
</svg>