<svg preserveAspectRatio="xMidYMid meet" data-bbox="56.098 20 87.804 160" viewBox="56.098 20 87.804 160" height="200" width="200" xmlns="http://www.w3.org/2000/svg" data-type="color" role="presentation" aria-hidden="true" aria-label="">
    <g>
        <path d="M100 180c-24.207 0-43.902-19.695-43.902-43.902V63.902C56.098 39.694 75.793 20 100 20s43.902 19.694 43.902 43.902v72.195C143.902 160.305 124.207 180 100 180zm0-158.049c-23.133 0-41.951 18.82-41.951 41.951v72.195c0 23.133 18.819 41.951 41.951 41.951s41.951-18.819 41.951-41.951V63.902c0-23.131-18.818-41.951-41.951-41.951z" fill="#0C0B0B" data-color="1"></path>
        <path d="M99.309 125.953a.976.976 0 0 0 1.38 0l6.209-6.209a.976.976 0 0 0-1.38-1.38l-5.519 5.519-5.519-5.519a.976.976 0 0 0-1.38 1.38l6.209 6.209zm-.285-51.216v50.526h1.951V74.737h-1.951z" fill="#0C0B0B" data-color="1"></path>
    </g>
</svg>